<svg width="45" height="40" viewBox="0 0 45 40" fill="none" xmlns="http://www.w3.org/2000/svg">
<path fill-rule="evenodd" clip-rule="evenodd" d="M35.6123 18.1209H8.68424V34.951C8.68424 35.3973 8.86155 35.8254 9.17718 36.141C9.4928 36.4567 9.92088 36.634 10.3672 36.634H33.9293C34.3757 36.634 34.8038 36.4567 35.1194 36.141C35.435 35.8254 35.6123 35.3973 35.6123 34.951V18.1209ZM38.9783 18.1209V36.634C38.9783 37.5267 38.6237 38.3829 37.9925 39.0141C37.3612 39.6454 36.505 40 35.6123 40H8.68424C7.79152 40 6.93536 39.6454 6.30411 39.0141C5.67286 38.3829 5.31823 37.5267 5.31823 36.634V18.1209H2.04478C1.68994 18.121 1.34415 18.009 1.05681 17.8008C0.769478 17.5925 0.5553 17.2989 0.444884 16.9616C0.334467 16.6244 0.333461 16.2609 0.442009 15.9231C0.550557 15.5852 0.763105 15.2904 1.04928 15.0806L21.1696 0.325667C21.4547 0.116693 21.7983 0.00276859 22.1517 4.9818e-05C22.5052 -0.00266896 22.8505 0.105956 23.1387 0.31052L33.9293 7.9682V6.33989C33.9293 5.89353 34.1066 5.46545 34.4223 5.14982C34.7379 4.8342 35.166 4.65688 35.6123 4.65688H37.2953C37.7417 4.65688 38.1698 4.8342 38.4854 5.14982C38.801 5.46545 38.9783 5.89353 38.9783 6.33989V11.5522L43.9297 15.0654C44.2209 15.2721 44.4388 15.566 44.552 15.9046C44.6651 16.2433 44.6676 16.6091 44.5591 16.9493C44.4506 17.2895 44.2368 17.5863 43.9485 17.7969C43.6602 18.0075 43.3123 18.121 42.9553 18.1209H38.9783ZM35.6123 14.7549V18.1209H8.68424V14.7549L21.2016 4.47596C21.4866 4.26698 21.8303 4.15306 22.1837 4.15034C22.5371 4.14762 22.8825 4.25625 23.1707 4.46081L35.6123 14.7549Z" fill="#7C606B"/>
<path d="M32.3385 20.196C32.3385 20.196 32.3385 21.1503 31.9472 22.405L27.5865 18.0451C27.35 17.8083 27.0292 17.6752 26.6945 17.6749H22.8211C22.5388 17.6751 22.2648 17.7699 22.0427 17.9442L20.5137 19.1408C20.4088 19.223 20.2887 19.2837 20.1602 19.3195C20.0318 19.3552 19.8976 19.3653 19.7653 19.3491C19.6329 19.3329 19.5051 19.2908 19.3891 19.2252C19.273 19.1595 19.1711 19.0717 19.089 18.9666C18.9233 18.7541 18.8485 18.4845 18.8812 18.217C18.9138 17.9495 19.0512 17.7058 19.2632 17.5394L24.4806 13.464H25.6065C27.3919 13.464 29.1042 14.1733 30.3667 15.4358C31.6292 16.6983 32.3385 18.4106 32.3385 20.196ZM14.9901 22.9982C14.9059 22.9138 14.8059 22.8469 14.6958 22.8012C14.5857 22.7555 14.4676 22.732 14.3484 22.732C14.2292 22.732 14.1112 22.7555 14.0011 22.8012C13.891 22.8469 13.791 22.9138 13.7068 22.9982L12.4075 24.3025C12.2372 24.4735 12.1416 24.705 12.1416 24.9463C12.1416 25.1876 12.2372 25.4191 12.4075 25.59C12.4917 25.6744 12.5917 25.7414 12.7018 25.7871C12.8119 25.8328 12.93 25.8563 13.0492 25.8563C13.1684 25.8563 13.2864 25.8328 13.3965 25.7871C13.5066 25.7414 13.6066 25.6744 13.6908 25.59L14.9901 24.2857C15.1603 24.1149 15.2559 23.8836 15.2559 23.6424C15.2559 23.4012 15.1603 23.1699 14.9901 22.9991M16.3331 24.757C16.4173 24.6723 16.5173 24.6052 16.6275 24.5594C16.7377 24.5135 16.8559 24.4899 16.9752 24.4899C17.0945 24.4899 17.2127 24.5135 17.3229 24.5594C17.4331 24.6052 17.5331 24.6723 17.6173 24.757C17.7873 24.9279 17.8827 25.1592 17.8827 25.4003C17.8827 25.6414 17.7873 25.8727 17.6173 26.0436L16.3163 27.3454C16.2322 27.4299 16.1322 27.497 16.0221 27.5427C15.9119 27.5885 15.7939 27.612 15.6746 27.612C15.5554 27.612 15.4373 27.5885 15.3272 27.5427C15.2171 27.497 15.1171 27.4299 15.033 27.3454C14.863 27.1745 14.7675 26.9432 14.7675 26.7021C14.7675 26.461 14.863 26.2297 15.033 26.0588L16.3331 24.757ZM19.7976 26.9423C19.7134 26.8579 19.6134 26.791 19.5033 26.7453C19.3932 26.6996 19.2752 26.6761 19.1559 26.6761C19.0367 26.6761 18.9187 26.6996 18.8086 26.7453C18.6985 26.791 18.5985 26.8579 18.5143 26.9423L17.215 28.245C17.0445 28.4158 16.9488 28.6474 16.9488 28.8887C16.9488 29.1301 17.0445 29.3616 17.215 29.5325C17.2991 29.617 17.3991 29.684 17.5093 29.7298C17.6194 29.7755 17.7374 29.7991 17.8567 29.7991C17.9759 29.7991 18.094 29.7755 18.2041 29.7298C18.3142 29.684 18.4142 29.617 18.4983 29.5325L19.7976 28.229C19.9679 28.058 20.0635 27.8266 20.0635 27.5852C20.0635 27.3439 19.9679 27.1133 19.7976 26.9423ZM21.9771 29.126C21.8929 29.0414 21.7929 28.9743 21.6827 28.9284C21.5725 28.8826 21.4544 28.859 21.335 28.859C21.2157 28.859 21.0975 28.8826 20.9873 28.9284C20.8771 28.9743 20.7771 29.0414 20.6929 29.126L19.3937 30.4295C19.2236 30.6005 19.1282 30.8318 19.1282 31.0729C19.1282 31.314 19.2236 31.5453 19.3937 31.7162C19.4778 31.8007 19.5778 31.8677 19.6879 31.9135C19.798 31.9592 19.9161 31.9828 20.0353 31.9828C20.1546 31.9828 20.2726 31.9592 20.3827 31.9135C20.4928 31.8677 20.5928 31.8007 20.677 31.7162L21.9762 30.4127C22.1465 30.2419 22.2421 30.0105 22.2421 29.7694C22.2421 29.5282 22.1465 29.2969 21.9762 29.126M21.4318 13.7097C20.9885 13.5788 20.5322 13.4969 20.0711 13.4657L19.9953 13.464H19.716C17.9305 13.464 16.2182 14.1733 14.9557 15.4358C13.6932 16.6983 12.9839 18.4106 12.9839 20.196V21.9522C13.3999 21.6138 13.9268 21.4419 14.4624 21.4701C14.9979 21.4982 15.5039 21.7243 15.8821 22.1045C16.2128 22.4369 16.4147 22.8501 16.4871 23.281C16.8064 23.2078 17.138 23.2079 17.4573 23.2811C17.7765 23.3543 18.075 23.4988 18.3305 23.7038C18.586 23.9087 18.7917 24.1688 18.9324 24.4646C19.0731 24.7604 19.1451 25.0841 19.1429 25.4116C19.43 25.4103 19.7145 25.4659 19.98 25.5753C20.2454 25.6846 20.4866 25.8455 20.6894 26.0487C20.8923 26.2519 21.0528 26.4932 21.1617 26.7589C21.2707 27.0245 21.3259 27.3091 21.3241 27.5962C21.6105 27.5948 21.8943 27.6503 22.1591 27.7595C22.4239 27.8687 22.6644 28.0295 22.8666 28.2324C23.273 28.6408 23.5012 29.1936 23.5012 29.7698C23.5012 30.346 23.273 30.8988 22.8666 31.3072L22.6772 31.4974L23.7493 32.5611C23.9193 32.7283 24.1482 32.8221 24.3867 32.8221C24.6252 32.8221 24.8542 32.7283 25.0242 32.5611C25.3725 32.216 25.3734 31.6573 25.0258 31.3114C24.9064 31.193 24.839 31.032 24.8383 30.8639C24.8375 30.6957 24.9037 30.5342 25.0221 30.4148C25.1405 30.2954 25.3014 30.2279 25.4696 30.2272C25.6377 30.2265 25.7993 30.2926 25.9187 30.411C26.0887 30.5783 26.3176 30.672 26.5561 30.672C26.7946 30.672 27.0236 30.5783 27.1936 30.411C27.2763 30.3293 27.342 30.232 27.3869 30.1247C27.4318 30.0174 27.4549 29.9023 27.455 29.786C27.4551 29.6697 27.4321 29.5545 27.3873 29.4471C27.3426 29.3398 27.277 29.2424 27.1944 29.1605C27.0825 29.0406 27.0214 28.882 27.0239 28.7181C27.0264 28.5541 27.0923 28.3974 27.2078 28.281C27.3233 28.1645 27.4794 28.0973 27.6433 28.0934C27.8073 28.0895 27.9664 28.1493 28.0872 28.2601C28.2574 28.4269 28.4863 28.5202 28.7246 28.5199C28.9629 28.5196 29.1915 28.4257 29.3613 28.2584C29.7181 27.905 29.7164 27.3311 29.3756 26.992L29.3731 26.9903L27.4771 25.0936C27.3657 24.9739 27.305 24.8157 27.3079 24.6522C27.3107 24.4887 27.377 24.3327 27.4926 24.217C27.6082 24.1014 27.7642 24.0352 27.9278 24.0323C28.0913 24.0294 28.2495 24.0901 28.3691 24.2016L30.5873 26.4172C31.0308 26.8573 31.7621 26.8616 32.1466 26.4804C32.5295 26.1008 32.5262 25.3805 32.0869 24.9438L32.0852 24.9421L26.501 19.3587H22.9667L21.5513 20.4661C21.2723 20.6845 20.953 20.8457 20.6117 20.9406C20.2703 21.0355 19.9137 21.0622 19.562 21.0192C19.2104 20.9762 18.8706 20.8644 18.5622 20.6901C18.2538 20.5158 17.9827 20.2824 17.7645 20.0033C17.3236 19.4392 17.1247 18.7231 17.2115 18.0125C17.2983 17.3018 17.6637 16.6546 18.2273 16.2132L21.4318 13.7097Z" fill="#7C606B"/>
</svg>
