<svg width="251" height="41" viewBox="0 0 251 41" fill="none" xmlns="http://www.w3.org/2000/svg">
<path fill-rule="evenodd" clip-rule="evenodd" d="M35.251 18.6209H8.32291V35.451C8.32291 35.8973 8.50023 36.3254 8.81585 36.641C9.13148 36.9567 9.55955 37.134 10.0059 37.134H33.568C34.0144 37.134 34.4424 36.9567 34.7581 36.641C35.0737 36.3254 35.251 35.8973 35.251 35.451V18.6209ZM38.617 18.6209V37.134C38.617 38.0267 38.2624 38.8829 37.6311 39.5141C36.9999 40.1454 36.1437 40.5 35.251 40.5H8.32291C7.43019 40.5 6.57403 40.1454 5.94278 39.5141C5.31153 38.8829 4.9569 38.0267 4.9569 37.134V18.6209H1.68345C1.32861 18.621 0.982821 18.509 0.695485 18.3008C0.40815 18.0925 0.193972 17.7989 0.0835556 17.4616C-0.0268611 17.1244 -0.0278672 16.7609 0.0806808 16.4231C0.189229 16.0852 0.401777 15.7904 0.687955 15.5806L20.8083 0.825667C21.0933 0.616693 21.437 0.502769 21.7904 0.50005C22.1438 0.497331 22.4892 0.605956 22.7774 0.81052L33.568 8.4682V6.83989C33.568 6.39353 33.7453 5.96545 34.0609 5.64982C34.3766 5.3342 34.8046 5.15688 35.251 5.15688H36.934C37.3804 5.15688 37.8084 5.3342 38.1241 5.64982C38.4397 5.96545 38.617 6.39353 38.617 6.83989V12.0522L43.5684 15.5654C43.8596 15.7721 44.0775 16.066 44.1906 16.4046C44.3038 16.7433 44.3063 17.1091 44.1978 17.4493C44.0893 17.7895 43.8755 18.0863 43.5871 18.2969C43.2988 18.5075 42.951 18.621 42.594 18.6209H38.617ZM35.251 15.2549V18.6209H8.32291V15.2549L20.8403 4.97596C21.1253 4.76698 21.4689 4.65306 21.8224 4.65034C22.1758 4.64762 22.5211 4.75625 22.8094 4.96081L35.251 15.2549Z" fill="#7C606B"/>
<path d="M31.9771 20.6961C31.9771 20.6961 31.9771 21.6503 31.5858 22.905L27.2252 18.5452C26.9887 18.3084 26.6678 18.1752 26.3332 18.1749H22.4597C22.1774 18.1751 21.9034 18.2699 21.6813 18.4442L20.1523 19.6408C20.0474 19.723 19.9273 19.7838 19.7988 19.8195C19.6704 19.8553 19.5362 19.8653 19.4039 19.8492C19.2715 19.833 19.1437 19.7909 19.0277 19.7252C18.9116 19.6596 18.8097 19.5717 18.7277 19.4666C18.5619 19.2541 18.4872 18.9846 18.5198 18.717C18.5525 18.4495 18.6898 18.2059 18.9018 18.0394L24.1192 13.9641H25.2451C27.0305 13.9641 28.7429 14.6733 30.0054 15.9358C31.2679 17.1983 31.9771 18.9106 31.9771 20.6961ZM14.6287 23.4983C14.5445 23.4139 14.4445 23.3469 14.3344 23.3012C14.2243 23.2555 14.1063 23.232 13.987 23.232C13.8678 23.232 13.7498 23.2555 13.6397 23.3012C13.5296 23.3469 13.4296 23.4139 13.3454 23.4983L12.0461 24.8026C11.8758 24.9736 11.7802 25.205 11.7802 25.4464C11.7802 25.6877 11.8758 25.9191 12.0461 26.0901C12.1303 26.1745 12.2303 26.2415 12.3404 26.2871C12.4505 26.3328 12.5686 26.3564 12.6878 26.3564C12.807 26.3564 12.925 26.3328 13.0351 26.2871C13.1452 26.2415 13.2452 26.1745 13.3294 26.0901L14.6287 24.7858C14.7989 24.615 14.8945 24.3836 14.8945 24.1424C14.8945 23.9013 14.7989 23.6699 14.6287 23.4991M15.9717 25.257C16.0559 25.1724 16.1559 25.1052 16.2661 25.0594C16.3763 25.0136 16.4945 24.99 16.6138 24.99C16.7331 24.99 16.8513 25.0136 16.9615 25.0594C17.0717 25.1052 17.1717 25.1724 17.2559 25.257C17.4259 25.4279 17.5214 25.6592 17.5214 25.9003C17.5214 26.1414 17.4259 26.3727 17.2559 26.5437L15.9549 27.8455C15.8708 27.93 15.7708 27.997 15.6607 28.0428C15.5506 28.0885 15.4325 28.1121 15.3133 28.1121C15.194 28.1121 15.076 28.0885 14.9658 28.0428C14.8557 27.997 14.7557 27.93 14.6716 27.8455C14.5016 27.6746 14.4061 27.4433 14.4061 27.2022C14.4061 26.961 14.5016 26.7298 14.6716 26.5588L15.9717 25.257ZM19.4362 27.4424C19.352 27.358 19.252 27.291 19.1419 27.2454C19.0318 27.1997 18.9138 27.1762 18.7946 27.1762C18.6753 27.1762 18.5573 27.1997 18.4472 27.2454C18.3371 27.291 18.2371 27.358 18.1529 27.4424L16.8536 28.745C16.6831 28.9159 16.5874 29.1474 16.5874 29.3888C16.5874 29.6302 16.6831 29.8617 16.8536 30.0325C16.9378 30.117 17.0378 30.1841 17.1479 30.2298C17.258 30.2756 17.376 30.2991 17.4953 30.2991C17.6145 30.2991 17.7326 30.2756 17.8427 30.2298C17.9528 30.1841 18.0528 30.117 18.1369 30.0325L19.4362 28.7291C19.6065 28.5581 19.7021 28.3266 19.7021 28.0853C19.7021 27.844 19.6065 27.6134 19.4362 27.4424ZM21.6157 29.6261C21.5315 29.5415 21.4315 29.4743 21.3213 29.4285C21.2111 29.3827 21.093 29.3591 20.9736 29.3591C20.8543 29.3591 20.7361 29.3827 20.6259 29.4285C20.5157 29.4743 20.4157 29.5415 20.3316 29.6261L19.0323 30.9296C18.8622 31.1005 18.7668 31.3318 18.7668 31.5729C18.7668 31.814 18.8622 32.0453 19.0323 32.2162C19.1164 32.3007 19.2164 32.3678 19.3265 32.4135C19.4366 32.4593 19.5547 32.4828 19.6739 32.4828C19.7932 32.4828 19.9112 32.4593 20.0213 32.4135C20.1314 32.3678 20.2314 32.3007 20.3156 32.2162L21.6149 30.9128C21.7851 30.7419 21.8807 30.5106 21.8807 30.2694C21.8807 30.0283 21.7851 29.7969 21.6149 29.6261M21.0704 14.2098C20.6271 14.0788 20.1708 13.997 19.7097 13.9657L19.634 13.9641H19.3546C17.5691 13.9641 15.8568 14.6733 14.5943 15.9358C13.3318 17.1983 12.6226 18.9106 12.6226 20.6961V22.4523C13.0385 22.1138 13.5654 21.942 14.101 21.9701C14.6365 21.9983 15.1425 22.2244 15.5207 22.6046C15.8514 22.937 16.0534 23.3502 16.1257 23.781C16.445 23.7079 16.7766 23.7079 17.0959 23.7812C17.4151 23.8544 17.7136 23.9989 17.9691 24.2038C18.2246 24.4088 18.4303 24.6689 18.571 24.9647C18.7117 25.2604 18.7837 25.5842 18.7815 25.9117C19.0686 25.9104 19.3531 25.966 19.6186 26.0753C19.884 26.1847 20.1252 26.3456 20.328 26.5488C20.5309 26.7519 20.6914 26.9933 20.8004 27.2589C20.9093 27.5246 20.9645 27.8092 20.9627 28.0962C21.2491 28.0949 21.533 28.1504 21.7977 28.2596C22.0625 28.3688 22.303 28.5295 22.5052 28.7324C22.9116 29.1409 23.1398 29.6936 23.1398 30.2698C23.1398 30.8461 22.9116 31.3988 22.5052 31.8073L22.3158 31.9975L23.3879 33.0611C23.5579 33.2284 23.7868 33.3221 24.0253 33.3221C24.2638 33.3221 24.4928 33.2284 24.6628 33.0611C25.0112 32.7161 25.012 32.1573 24.6645 31.8115C24.5451 31.6931 24.4776 31.5321 24.4769 31.364C24.4762 31.1958 24.5423 31.0343 24.6607 30.9149C24.7791 30.7955 24.94 30.728 25.1082 30.7273C25.2763 30.7266 25.4379 30.7927 25.5573 30.9111C25.7273 31.0784 25.9562 31.1721 26.1947 31.1721C26.4332 31.1721 26.6622 31.0784 26.8322 30.9111C26.9149 30.8294 26.9806 30.732 27.0255 30.6247C27.0704 30.5174 27.0935 30.4023 27.0936 30.286C27.0937 30.1697 27.0707 30.0546 27.026 29.9472C26.9812 29.8399 26.9156 29.7424 26.833 29.6606C26.7211 29.5407 26.66 29.3821 26.6625 29.2181C26.665 29.0541 26.7309 28.8975 26.8464 28.781C26.9619 28.6646 27.118 28.5973 27.2819 28.5935C27.4459 28.5896 27.605 28.6493 27.7258 28.7602C27.896 28.927 28.1249 29.0203 28.3632 29.02C28.6015 29.0197 28.8301 28.9258 28.9999 28.7585C29.3567 28.4051 29.355 27.8312 29.0142 27.492L29.0117 27.4904L27.1158 25.5936C27.0043 25.474 26.9436 25.3157 26.9465 25.1522C26.9494 24.9887 27.0156 24.8327 27.1312 24.7171C27.2469 24.6015 27.4029 24.5352 27.5664 24.5323C27.7299 24.5295 27.8881 24.5901 28.0077 24.7016L30.226 26.9173C30.6694 27.3574 31.4007 27.3616 31.7853 26.9804C32.1681 26.6009 32.1648 25.8806 31.7255 25.4438L31.7238 25.4421L26.1396 19.8588H22.6053L21.1899 20.9662C20.9109 21.1845 20.5916 21.3457 20.2503 21.4406C19.909 21.5355 19.5523 21.5623 19.2006 21.5193C18.849 21.4763 18.5092 21.3645 18.2008 21.1901C17.8924 21.0158 17.6213 20.7825 17.4031 20.5034C16.9622 19.9393 16.7633 19.2232 16.8501 18.5125C16.9369 17.8018 17.3023 17.1547 17.866 16.7132L21.0704 14.2098Z" fill="#7C606B"/>
<path d="M61.6934 10.1C63.7414 10.1 65.2667 10.58 66.2694 11.54C67.272 12.5 67.7734 13.9187 67.7734 15.796C67.7734 16.7987 67.528 17.684 67.0374 18.452C66.5467 19.1987 65.8214 19.7853 64.8614 20.212C63.9014 20.6173 62.7174 20.82 61.3094 20.82L61.4374 19.38C62.0987 19.38 62.856 19.476 63.7094 19.668C64.5627 19.8387 65.384 20.1587 66.1734 20.628C66.984 21.076 67.6454 21.716 68.1574 22.548C68.6907 23.3587 68.9574 24.404 68.9574 25.684C68.9574 27.092 68.7227 28.244 68.2534 29.14C67.8054 30.036 67.208 30.7293 66.4614 31.22C65.7147 31.7107 64.9147 32.052 64.0614 32.244C63.208 32.4147 62.3867 32.5 61.5974 32.5H53.6294C53.0747 32.5 52.6054 32.3187 52.2214 31.956C51.8587 31.572 51.6774 31.1027 51.6774 30.548V12.052C51.6774 11.4973 51.8587 11.0387 52.2214 10.676C52.6054 10.292 53.0747 10.1 53.6294 10.1H61.6934ZM61.1174 13.876H55.4214L55.8374 13.364V19.156L55.4534 18.868H61.2134C61.832 18.868 62.3867 18.6653 62.8774 18.26C63.368 17.8547 63.6134 17.268 63.6134 16.5C63.6134 15.5827 63.3787 14.9213 62.9094 14.516C62.4614 14.0893 61.864 13.876 61.1174 13.876ZM61.3734 22.644H55.5494L55.8374 22.388V29.14L55.5174 28.82H61.5974C62.5787 28.82 63.3574 28.564 63.9334 28.052C64.5094 27.5187 64.7974 26.7293 64.7974 25.684C64.7974 24.724 64.6054 24.0307 64.2214 23.604C63.8374 23.1773 63.3787 22.9107 62.8454 22.804C62.312 22.6973 61.8214 22.644 61.3734 22.644ZM85.0301 15.38C85.5848 15.38 86.0435 15.572 86.4061 15.956C86.7688 16.3187 86.9501 16.7773 86.9501 17.332V25.46C86.9501 27.7213 86.3208 29.5133 85.0621 30.836C83.8035 32.1587 81.9901 32.82 79.6221 32.82C77.2541 32.82 75.4408 32.1587 74.1821 30.836C72.9448 29.5133 72.3261 27.7213 72.3261 25.46V17.332C72.3261 16.7773 72.5075 16.3187 72.8701 15.956C73.2328 15.572 73.6915 15.38 74.2461 15.38C74.8008 15.38 75.2595 15.572 75.6221 15.956C75.9848 16.3187 76.1661 16.7773 76.1661 17.332V25.46C76.1661 26.7613 76.4541 27.732 77.0301 28.372C77.6061 28.9907 78.4701 29.3 79.6221 29.3C80.7955 29.3 81.6701 28.9907 82.2461 28.372C82.8221 27.732 83.1101 26.7613 83.1101 25.46V17.332C83.1101 16.7773 83.2915 16.3187 83.6541 15.956C84.0168 15.572 84.4755 15.38 85.0301 15.38ZM105.123 8.82C105.678 8.82 106.137 9.00133 106.499 9.364C106.862 9.72667 107.043 10.196 107.043 10.772V30.548C107.043 31.1027 106.862 31.572 106.499 31.956C106.137 32.3187 105.678 32.5 105.123 32.5C104.569 32.5 104.11 32.3187 103.747 31.956C103.385 31.572 103.203 31.1027 103.203 30.548V28.98L103.907 29.268C103.907 29.5453 103.758 29.8867 103.459 30.292C103.161 30.676 102.755 31.06 102.243 31.444C101.731 31.828 101.123 32.1587 100.419 32.436C99.7367 32.692 98.99 32.82 98.1794 32.82C96.7074 32.82 95.374 32.4467 94.1794 31.7C92.9847 30.932 92.0354 29.8867 91.3314 28.564C90.6487 27.22 90.3074 25.684 90.3074 23.956C90.3074 22.2067 90.6487 20.6707 91.3314 19.348C92.0354 18.004 92.974 16.9587 94.1474 16.212C95.3207 15.444 96.622 15.06 98.0514 15.06C98.9687 15.06 99.8114 15.1987 100.579 15.476C101.347 15.7533 102.009 16.1053 102.563 16.532C103.139 16.9587 103.577 17.396 103.875 17.844C104.195 18.2707 104.355 18.6333 104.355 18.932L103.203 19.348V10.772C103.203 10.2173 103.385 9.75867 103.747 9.396C104.11 9.012 104.569 8.82 105.123 8.82ZM98.6594 29.3C99.598 29.3 100.419 29.0653 101.123 28.596C101.827 28.1267 102.371 27.4867 102.755 26.676C103.161 25.8653 103.363 24.9587 103.363 23.956C103.363 22.932 103.161 22.0147 102.755 21.204C102.371 20.3933 101.827 19.7533 101.123 19.284C100.419 18.8147 99.598 18.58 98.6594 18.58C97.742 18.58 96.9314 18.8147 96.2274 19.284C95.5234 19.7533 94.9687 20.3933 94.5634 21.204C94.1794 22.0147 93.9874 22.932 93.9874 23.956C93.9874 24.9587 94.1794 25.8653 94.5634 26.676C94.9687 27.4867 95.5234 28.1267 96.2274 28.596C96.9314 29.0653 97.742 29.3 98.6594 29.3ZM125.217 8.82C125.772 8.82 126.23 9.00133 126.593 9.364C126.956 9.72667 127.137 10.196 127.137 10.772V30.548C127.137 31.1027 126.956 31.572 126.593 31.956C126.23 32.3187 125.772 32.5 125.217 32.5C124.662 32.5 124.204 32.3187 123.841 31.956C123.478 31.572 123.297 31.1027 123.297 30.548V28.98L124.001 29.268C124.001 29.5453 123.852 29.8867 123.553 30.292C123.254 30.676 122.849 31.06 122.337 31.444C121.825 31.828 121.217 32.1587 120.513 32.436C119.83 32.692 119.084 32.82 118.273 32.82C116.801 32.82 115.468 32.4467 114.273 31.7C113.078 30.932 112.129 29.8867 111.425 28.564C110.742 27.22 110.401 25.684 110.401 23.956C110.401 22.2067 110.742 20.6707 111.425 19.348C112.129 18.004 113.068 16.9587 114.241 16.212C115.414 15.444 116.716 15.06 118.145 15.06C119.062 15.06 119.905 15.1987 120.673 15.476C121.441 15.7533 122.102 16.1053 122.657 16.532C123.233 16.9587 123.67 17.396 123.969 17.844C124.289 18.2707 124.449 18.6333 124.449 18.932L123.297 19.348V10.772C123.297 10.2173 123.478 9.75867 123.841 9.396C124.204 9.012 124.662 8.82 125.217 8.82ZM118.753 29.3C119.692 29.3 120.513 29.0653 121.217 28.596C121.921 28.1267 122.465 27.4867 122.849 26.676C123.254 25.8653 123.457 24.9587 123.457 23.956C123.457 22.932 123.254 22.0147 122.849 21.204C122.465 20.3933 121.921 19.7533 121.217 19.284C120.513 18.8147 119.692 18.58 118.753 18.58C117.836 18.58 117.025 18.8147 116.321 19.284C115.617 19.7533 115.062 20.3933 114.657 21.204C114.273 22.0147 114.081 22.932 114.081 23.956C114.081 24.9587 114.273 25.8653 114.657 26.676C115.062 27.4867 115.617 28.1267 116.321 28.596C117.025 29.0653 117.836 29.3 118.753 29.3ZM143.999 15.38C144.554 15.38 145.012 15.572 145.375 15.956C145.738 16.3187 145.919 16.7773 145.919 17.332V30.932C145.919 32.8947 145.546 34.452 144.799 35.604C144.074 36.7773 143.092 37.62 141.855 38.132C140.618 38.644 139.231 38.9 137.695 38.9C137.012 38.9 136.287 38.8467 135.519 38.74C134.751 38.6333 134.122 38.4733 133.631 38.26C132.991 37.9827 132.543 37.6307 132.287 37.204C132.052 36.7987 132.01 36.3613 132.159 35.892C132.351 35.2733 132.66 34.8467 133.087 34.612C133.514 34.3987 133.962 34.3773 134.431 34.548C134.772 34.6547 135.22 34.8147 135.775 35.028C136.33 35.2627 136.97 35.38 137.695 35.38C138.676 35.38 139.487 35.2413 140.127 34.964C140.788 34.708 141.279 34.26 141.599 33.62C141.94 33.0013 142.111 32.148 142.111 31.06V28.916L142.783 29.684C142.42 30.388 141.962 30.9747 141.407 31.444C140.874 31.892 140.234 32.2333 139.487 32.468C138.74 32.7027 137.887 32.82 136.927 32.82C135.796 32.82 134.804 32.564 133.951 32.052C133.119 31.5187 132.468 30.7933 131.999 29.876C131.53 28.9373 131.295 27.8707 131.295 26.676V17.332C131.295 16.7773 131.476 16.3187 131.839 15.956C132.202 15.572 132.66 15.38 133.215 15.38C133.77 15.38 134.228 15.572 134.591 15.956C134.954 16.3187 135.135 16.7773 135.135 17.332V25.524C135.135 26.9107 135.434 27.892 136.031 28.468C136.65 29.0227 137.503 29.3 138.591 29.3C139.338 29.3 139.967 29.1613 140.479 28.884C140.991 28.5853 141.386 28.1587 141.663 27.604C141.94 27.028 142.079 26.3347 142.079 25.524V17.332C142.079 16.7773 142.26 16.3187 142.623 15.956C142.986 15.572 143.444 15.38 143.999 15.38ZM152.7 32.5C152.103 32.5 151.569 32.3187 151.1 31.956C150.631 31.572 150.396 31.1027 150.396 30.548V12.052C150.396 11.4973 150.577 11.0387 150.94 10.676C151.324 10.292 151.793 10.1 152.348 10.1H161.564C162.673 10.1 163.708 10.3987 164.668 10.996C165.649 11.572 166.439 12.3827 167.036 13.428C167.633 14.452 167.932 15.636 167.932 16.98C167.932 17.7907 167.761 18.58 167.42 19.348C167.1 20.116 166.652 20.8093 166.076 21.428C165.521 22.0467 164.892 22.5267 164.188 22.868L164.22 22.132C164.817 22.452 165.308 22.836 165.692 23.284C166.097 23.7107 166.407 24.18 166.62 24.692C166.855 25.1827 166.993 25.716 167.036 26.292C167.121 26.8253 167.175 27.2947 167.196 27.7C167.239 28.1053 167.303 28.4467 167.388 28.724C167.495 29.0013 167.687 29.2147 167.964 29.364C168.433 29.6413 168.721 30.0467 168.828 30.58C168.956 31.092 168.839 31.5507 168.476 31.956C168.241 32.2333 167.943 32.4147 167.58 32.5C167.217 32.564 166.855 32.564 166.492 32.5C166.129 32.4147 165.831 32.308 165.596 32.18C165.233 31.9667 164.871 31.6573 164.508 31.252C164.145 30.8253 163.847 30.26 163.612 29.556C163.399 28.852 163.292 27.9453 163.292 26.836C163.292 26.4733 163.228 26.1427 163.1 25.844C162.972 25.524 162.791 25.2573 162.556 25.044C162.321 24.8093 162.023 24.6387 161.66 24.532C161.297 24.404 160.871 24.34 160.38 24.34H153.916L154.396 23.604V30.548C154.396 31.1027 154.247 31.572 153.948 31.956C153.649 32.3187 153.233 32.5 152.7 32.5ZM153.948 21.044H161.404C161.788 21.044 162.161 20.8733 162.524 20.532C162.887 20.1693 163.185 19.6893 163.42 19.092C163.655 18.4733 163.772 17.8013 163.772 17.076C163.772 16.1373 163.516 15.3587 163.004 14.74C162.513 14.1 161.98 13.78 161.404 13.78H154.012L154.396 12.756V21.812L153.948 21.044ZM179.953 32.82C178.139 32.82 176.561 32.4467 175.217 31.7C173.894 30.932 172.87 29.8973 172.145 28.596C171.441 27.2947 171.089 25.8227 171.089 24.18C171.089 22.26 171.473 20.628 172.241 19.284C173.03 17.9187 174.054 16.8733 175.313 16.148C176.571 15.4227 177.905 15.06 179.313 15.06C180.401 15.06 181.425 15.284 182.385 15.732C183.366 16.18 184.23 16.7987 184.977 17.588C185.723 18.356 186.31 19.252 186.737 20.276C187.185 21.3 187.409 22.388 187.409 23.54C187.387 24.052 187.185 24.468 186.801 24.788C186.417 25.108 185.969 25.268 185.457 25.268H173.233L172.273 22.068H184.017L183.313 22.708V21.844C183.27 21.2253 183.046 20.6707 182.641 20.18C182.257 19.6893 181.766 19.3053 181.169 19.028C180.593 18.7293 179.974 18.58 179.313 18.58C178.673 18.58 178.075 18.6653 177.521 18.836C176.966 19.0067 176.486 19.2947 176.081 19.7C175.675 20.1053 175.355 20.6493 175.121 21.332C174.886 22.0147 174.769 22.8787 174.769 23.924C174.769 25.076 175.003 26.0573 175.473 26.868C175.963 27.6573 176.582 28.2653 177.329 28.692C178.097 29.0973 178.907 29.3 179.761 29.3C180.55 29.3 181.179 29.236 181.649 29.108C182.118 28.98 182.491 28.8307 182.769 28.66C183.067 28.468 183.334 28.308 183.569 28.18C183.953 27.988 184.315 27.892 184.657 27.892C185.126 27.892 185.51 28.052 185.809 28.372C186.129 28.692 186.289 29.0653 186.289 29.492C186.289 30.068 185.99 30.5907 185.393 31.06C184.838 31.5293 184.059 31.9453 183.057 32.308C182.054 32.6493 181.019 32.82 179.953 32.82ZM199.916 15.06C201.494 15.06 202.689 15.3907 203.5 16.052C204.332 16.7133 204.897 17.5987 205.196 18.708C205.516 19.796 205.676 21.012 205.676 22.356V30.548C205.676 31.1027 205.494 31.572 205.132 31.956C204.769 32.3187 204.31 32.5 203.756 32.5C203.201 32.5 202.742 32.3187 202.38 31.956C202.017 31.572 201.836 31.1027 201.836 30.548V22.356C201.836 21.652 201.74 21.0227 201.548 20.468C201.377 19.892 201.057 19.4333 200.588 19.092C200.118 18.7507 199.446 18.58 198.572 18.58C197.718 18.58 196.993 18.7507 196.396 19.092C195.82 19.4333 195.372 19.892 195.052 20.468C194.753 21.0227 194.604 21.652 194.604 22.356V30.548C194.604 31.1027 194.422 31.572 194.06 31.956C193.697 32.3187 193.238 32.5 192.684 32.5C192.129 32.5 191.67 32.3187 191.308 31.956C190.945 31.572 190.764 31.1027 190.764 30.548V17.332C190.764 16.7773 190.945 16.3187 191.308 15.956C191.67 15.572 192.129 15.38 192.684 15.38C193.238 15.38 193.697 15.572 194.06 15.956C194.422 16.3187 194.604 16.7773 194.604 17.332V18.708L194.124 18.612C194.316 18.2493 194.593 17.8653 194.956 17.46C195.318 17.0333 195.745 16.6387 196.236 16.276C196.726 15.9133 197.281 15.6253 197.9 15.412C198.518 15.1773 199.19 15.06 199.916 15.06ZM210.018 15.7H217.602C218.114 15.7 218.541 15.8707 218.882 16.212C219.223 16.5533 219.394 16.98 219.394 17.492C219.394 17.9827 219.223 18.3987 218.882 18.74C218.541 19.06 218.114 19.22 217.602 19.22H210.018C209.506 19.22 209.079 19.0493 208.738 18.708C208.397 18.3667 208.226 17.94 208.226 17.428C208.226 16.9373 208.397 16.532 208.738 16.212C209.079 15.8707 209.506 15.7 210.018 15.7ZM213.442 11.7C213.997 11.7 214.445 11.892 214.786 12.276C215.149 12.6387 215.33 13.0973 215.33 13.652V27.892C215.33 28.1907 215.383 28.436 215.49 28.628C215.618 28.82 215.778 28.9587 215.97 29.044C216.183 29.1293 216.407 29.172 216.642 29.172C216.898 29.172 217.133 29.1293 217.346 29.044C217.559 28.9373 217.805 28.884 218.082 28.884C218.381 28.884 218.647 29.0227 218.882 29.3C219.138 29.5773 219.266 29.9613 219.266 30.452C219.266 31.0493 218.935 31.54 218.274 31.924C217.634 32.308 216.941 32.5 216.194 32.5C215.746 32.5 215.245 32.468 214.69 32.404C214.157 32.3187 213.645 32.1373 213.154 31.86C212.685 31.5613 212.29 31.1133 211.97 30.516C211.65 29.9187 211.49 29.0973 211.49 28.052V13.652C211.49 13.0973 211.671 12.6387 212.034 12.276C212.418 11.892 212.887 11.7 213.442 11.7ZM236.936 15.06C237.491 15.06 237.949 15.2413 238.312 15.604C238.675 15.9667 238.856 16.436 238.856 17.012V30.548C238.856 31.1027 238.675 31.572 238.312 31.956C237.949 32.3187 237.491 32.5 236.936 32.5C236.381 32.5 235.923 32.3187 235.56 31.956C235.197 31.572 235.016 31.1027 235.016 30.548V28.98L235.72 29.268C235.72 29.5453 235.571 29.8867 235.272 30.292C234.973 30.676 234.568 31.06 234.056 31.444C233.544 31.828 232.936 32.1587 232.232 32.436C231.549 32.692 230.803 32.82 229.992 32.82C228.52 32.82 227.187 32.4467 225.992 31.7C224.797 30.932 223.848 29.8867 223.144 28.564C222.461 27.22 222.12 25.684 222.12 23.956C222.12 22.2067 222.461 20.6707 223.144 19.348C223.848 18.004 224.787 16.9587 225.96 16.212C227.133 15.444 228.435 15.06 229.864 15.06C230.781 15.06 231.624 15.1987 232.392 15.476C233.16 15.7533 233.821 16.1053 234.376 16.532C234.952 16.9587 235.389 17.396 235.688 17.844C236.008 18.2707 236.168 18.6333 236.168 18.932L235.016 19.348V17.012C235.016 16.4573 235.197 15.9987 235.56 15.636C235.923 15.252 236.381 15.06 236.936 15.06ZM230.472 29.3C231.411 29.3 232.232 29.0653 232.936 28.596C233.64 28.1267 234.184 27.4867 234.568 26.676C234.973 25.8653 235.176 24.9587 235.176 23.956C235.176 22.932 234.973 22.0147 234.568 21.204C234.184 20.3933 233.64 19.7533 232.936 19.284C232.232 18.8147 231.411 18.58 230.472 18.58C229.555 18.58 228.744 18.8147 228.04 19.284C227.336 19.7533 226.781 20.3933 226.376 21.204C225.992 22.0147 225.8 22.932 225.8 23.956C225.8 24.9587 225.992 25.8653 226.376 26.676C226.781 27.4867 227.336 28.1267 228.04 28.596C228.744 29.0653 229.555 29.3 230.472 29.3ZM247.174 30.548C247.174 31.1027 246.982 31.572 246.598 31.956C246.235 32.3187 245.776 32.5 245.222 32.5C244.688 32.5 244.24 32.3187 243.878 31.956C243.515 31.572 243.334 31.1027 243.334 30.548V10.772C243.334 10.2173 243.515 9.75867 243.878 9.396C244.262 9.012 244.731 8.82 245.286 8.82C245.84 8.82 246.288 9.012 246.63 9.396C246.992 9.75867 247.174 10.2173 247.174 10.772V30.548Z" fill="#7C606B"/>
</svg>
